<svg xmlns="http://www.w3.org/2000/svg" width="1000" height="700"><metadata>
    <rdf:rdf xmlns:rdf="http://www.w3.org/1999/02/22-rdf-syntax-ns#" xmlns:cc="http://creativecommons.org/ns#" xmlns:dc="http://purl.org/dc/elements/1.1/">
      <cc:work rdf:about="">
        <dc:format>image/svg+xml</dc:format>
        <dc:type rdf:resource="http://purl.org/dc/dcmitype/StillImage"></dc:type>
        <dc:title>MapChart Map</dc:title>
        <dc:creator>
          <cc:agent>
            <dc:title>MapChart.net</dc:title>
          </cc:agent>
        </dc:creator>
        <cc:license rdf:resource="http://creativecommons.org/licenses/by-sa/4.0/"></cc:license>
        <dc:description>This map was created with MapChart.net, a website for creating custom maps.</dc:description>
      </cc:work>
      <cc:license rdf:about="http://creativecommons.org/licenses/by-sa/4.0/">
        <cc:permits rdf:resource="http://creativecommons.org/ns#Reproduction"></cc:permits>
        <cc:permits rdf:resource="http://creativecommons.org/ns#Distribution"></cc:permits>
        <cc:requires rdf:resource="http://creativecommons.org/ns#Notice"></cc:requires>
        <cc:requires rdf:resource="http://creativecommons.org/ns#Attribution"></cc:requires>
        <cc:requires rdf:resource="http://creativecommons.org/ns#ShareAlike"></cc:requires>
      </cc:license>
    </rdf:rdf>
  </metadata><path id="HI" fill="#d1dbdd" stroke="#000" stroke-width="0.82" d="m257.21 518.95 1.75-3.16 2-.3.29.71-1.85 2.74h-2.18Zm9.08-3.29 5.48 2.28 1.86-.29 1.44-3.44-.57-3.02-3.73-.4-3.6 1.56-.87 3.31Zm27.37 8.9 3.3 4.88 2.16-.29 1.01-.43 1.3 1.15 3.31-.14.86-1.3-2.58-1.58-1.73-3.3-1.87-3.17-5.18 2.6Zm18 7.9 1.15-1.72 4.18.86.57-.43 5.47.57-.29 1.15-2.3 1.3-3.9-.3-4.89-1.43Zm4.76 4.6 1.72 3.44 2.75-1 .3-1.44-1.45-1.85-3.31-.3v1.15Zm6.19-1 2.01-2.6 4.18 2.16 3.88 1.01 3.89 2.43v1.73l-3.17 1.58-4.31.86-2.16-1.28-4.33-5.88Zm14.83 13.79 1.44-1.15 3.03 1.43 6.77 3.17 3.02 1.88 1.44 2.15 1.73 3.87 3.59 2.3-.29 1.16-3.45 2.87-3.75 1.3-1.3-.58-2.74 1.58-2.16 2.88-2.02 2.58-1.6-.14-3.16-2.3-.28-4.03.56-2.15-1.44-5.03-1.88-1.59-.14-2.29 2.01-.86 1.88-2.72.43-.86-1.43-1.57-.31-1.87Z"></path>
<text id="HI_label" fill="#000000" font-size="15.4" font-family="Arial" font-weight="normal" font-style="normal" letter-spacing="0" transform="rotate(0)" text-anchor="center"><tspan x="312.49" y="557.84">HI</tspan></text>
<path id="NH" fill="#d1dbdd" stroke="#000" stroke-width="0.82" d="m834.3 183.93.78-.96.96-2.92-2.26-.83-.43-2.72-3.45-1-.3-2.45-6.46-20.84-4.1-12.91h-.8l-.58 1.43-.58-.44-.87-.86-1.29 1.73-.04 4.47.29 5.04 1.73 2.44v3.6l-3.31 4.5-2.31 1v1l1 1.59v7.62l-.71 8.18-.16 4.31.87 1.13-.14 4.04-.44 1.58.88.62 14.95-3.93 1.96-.53 1.64-2.46 3.18-1.44Z"></path>
<text id="NH_label" fill="#000000" font-size="10.6" font-family="Arial" font-weight="normal" font-style="normal" letter-spacing="0" transform="rotate(0)" text-anchor="center"><tspan x="820.85" y="178.94">NH</tspan></text>
<path id="VT" fill="#d1dbdd" stroke="#000" stroke-width="0.82" d="m801.95 194.27.28-4.75-2.57-9.59-.58-.28-2.59-1.15.72-2.6-.72-1.86-2.4-4.1.87-3.47-.72-4.6-2.16-5.75-.71-4.38 23.54-5.98.27 4.9 1.7 2.44v3.6l-3.3 4.5-2.3 1v1l1.15 1.35-.28 7.19-.54 8.23-.2 4.93.86 1.15-.14 4.07-.43 1.5.92.65-6.64 1.33-4 .65Z"></path>
<path id="VT_line" fill="#d1dbdd" stroke="#000" stroke-width="1.02694" d="m796.38 130.24 7.83 25.84-7.82-25.83Z"></path>
<text id="VT_label" fill="#000000" font-size="10.12" font-family="Arial" font-weight="normal" font-style="normal" letter-spacing="0" transform="rotate(0)" text-anchor="center"><tspan x="796.14" y="126.47">VT</tspan></text>
<path id="ME" fill="#d1dbdd" stroke="#000" stroke-width="0.82" d="m871.75 127.42 1.75 1.84 2.01 3.31v1.73l-1.88 4.17-1.72.57-3.03 2.73-4.31 4.89h-1.16c-.58 0-.87-1.87-.87-1.87l-1.58.14-.87 1.3-2.16 1.3-.87 1.29 1.44 1.3-.43.57-.44 2.43-1.72-.14v-1.43l-.29-1.15-1.3.29-1.58-2.88-1.88 1.15 1.15 1.3.27 1-.71 1.15.28 2.73.15 1.44-1.44 2.29-2.6.43-.29 2.59-4.76 2.73-1.15.43-1.44-1.3-2.74 3.16.86 2.88-1.28 1.15-.15 3.86-1 5.56-2.18-1.02-.43-2.73-3.46-1.01-.28-2.44-6.47-20.85-4.21-13 1.27-.1 1.36.35v-2.29l1.15-4 2.31-4.16 1.3-3.6-1.75-2.15v-5.29l.74-.87.72-2.45-.15-1.3-.13-4.3 1.58-4.3 2.6-7.9 1.88-3.74H833l1.15.14v1l1.15 2.02 2.46.58.72-.72v-.87l3.6-2.58 1.58-1.58 1.3.14 5.33 2.16 1.72.86 8.06 26.6h5.34l.72 1.71.13 4.31 2.59 2.02h.72l.15-.43-.44-1 2.46-.14Zm-18.63 26.78 1.36-1.37 1.23.93.5 2.15-1.51.8-1.6-2.51Zm5.97-5.24 1.58 1.64s1.16.08 1.16-.2c0-.31.21-1.8.21-1.8l.82-.73-.74-1.57-1.78.64-1.24 2Z"></path>
<text id="ME_label" fill="#000000" font-size="13.9" font-family="Arial" font-weight="normal" font-style="normal" letter-spacing="0" transform="rotate(0)" text-anchor="center"><tspan x="843.99" y="136.49">ME</tspan></text>
<path id="RI" fill="#d1dbdd" stroke="#000" stroke-width="0.82" d="m828.32 216.35-3.3-13.29 5.59-1.64 1.95 1.71 2.94 3.84 2.4 3.9-2.67 1.44-1.15-.13-1.01 1.58-2.16 1.73-2.58.86Z"></path>
<path id="RI_line" fill="#d1dbdd" stroke="#000" stroke-width="1.02694" d="m831.53 209.25 15.36 17-15.38-17Z"></path>
<text id="RI_label" fill="#000000" font-size="11.99" font-family="Arial" font-weight="normal" font-style="normal" letter-spacing="0" transform="rotate(0)" text-anchor="center"><tspan x="854.54" y="235.14">RI</tspan></text>
<path id="NY" fill="#d1dbdd" stroke="#000" stroke-width="0.82" d="m789.4 225.1-1.03-.85-2.3-.16-2.02-1.72-1.43-5.45-3.08.08-2.2-2.4-17.26 3.9-38.31 7.75-6.72 1.09-.64-5.75 1.26-.99 1.16-1 .86-1.44 1.58-1.01 1.75-1.58.41-1.44 1.9-2.44 1-.87-.15-.86-1.15-2.73-1.59-.14-1.71-5.45 2.6-1.59 3.88-1.3 3.6-1.14 2.87-.43 5.62-.15 1.75 1.13 1.44.16 1.85-1.15 2.32-1.01 4.62-.43 1.85-1.58 1.59-2.88 1.44-1.75h1.88l1.72-1 .14-2-1.29-1.87-.29-1.3 1-1.87v-1.29h-1.57l-1.6-.72-.71-1-.15-2.3 5.18-4.9.57-.71 1.3-2.6 2.6-4.02 2.43-3.28 1.88-2.16 2.16-1.64 2.74-1.1 4.9-1.15 2.87.15 4.04-1.3 6.73-1.84.47 4.42 2.15 5.75.72 4.6-.85 3.45 2.3 4.02.72 1.87-.72 2.6 2.57 1.14.6.29 2.72 9.75-.47 4.52-.44 9.63.72 4.87.72 3.17 1.3 6.47v7.18l-1 2 1.64 1.78.7 1.5-1.73 1.57.29 1.15 1.15-.3 1.3-1.13 2.03-2.31 1-.58 1.44.57 2.02.14 7.06-3.46 2.57-2.44 1.17-1.29 3.74 1.44-3.02 3.15-3.46 2.59-6.34 4.72-2.3.88-5.19 1.72-3.6 1-1.04-.45-.2-3.3.4-2.42-.13-1.87-2.5-1.51-4.03-.88-3.45-1-3.32-1.58Z"></path>
<text id="NY_label" fill="#000000" font-size="15.4" font-family="Arial" font-weight="normal" font-style="normal" letter-spacing="0" transform="rotate(0)" text-anchor="center"><tspan x="776.82" y="197.83">NY</tspan></text>
<path id="PA" fill="#d1dbdd" stroke="#000" stroke-width="0.82" d="m784.7 257.07 1.17-.25 2.08-1.1 1.06-2.22 1.44-2 2.88-2.73v-.72l-2.16-1.44-3.16-2.15-.88-2.3-2.43-.3-.14-1-.72-2.44 2-1 .14-2.17-1.16-1.15.15-1.43 1.74-2.73v-2.73l2.4-2.36-.82-.6-2.24-.17-2.06-1.72-1.37-5.45-3.12.1-2.18-2.4-16.13 3.72-38.3 7.76-7.93 1.29-.55-5.8-4.78 4.51-1.15.41-3.74 2.67 2.6 17.03 2.2 8.65 3.18 17.12 2.92-.57 10.64-1.33 33.78-6.81 13.25-2.53 7.4-1.44.24-.2 1.88-1.44 1.88-.61Z"></path>
<text id="PA_label" fill="#000000" font-size="15.4" font-family="Arial" font-weight="normal" font-style="normal" letter-spacing="0" transform="rotate(0)" text-anchor="center"><tspan x="743.06" y="249.71">PA</tspan></text>
<path id="VA" fill="#d1dbdd" stroke="#000" stroke-width="0.82" d="m790.5 293.84-.12-1.74 5.75-2.26-.69 2.87-2.6 3.35-.39 4.08.42 3-1.65 4.42-1.92 1.7-1.31-4.12.4-4.85 1.42-3.72.67-2.75Zm2.98 25.16-51.83 11.17-33.33 4.7-5.96-.31-2.3 1.7-6.54.2-7.47.86-9.72 1.44 9.31-5v-1.85l1.34-1.9 9.41-10.23 3.52 3.99 3.37.85 2.25-1 2-1.18 2.27 1.2 3.49-1.26 1.66-4.06 2.31.48 2.55-1.9 1.6.44 2.54-3.27.3-1.85-.86-1.13.9-1.66 4.7-10.92.54-5.08 1.11-.47 1.95 2.15 3.5-.25 1.72-6.74 2.49-.51.92-2.44 2.31-2.08 2.47-5.06.08-4.5 8.76 3.39c.61.3.74-4.5.74-4.5l3.25 1.44.06 2.6 5.16 1.16 1.9 1.02 1.48 1.85-.6 3.24-1.74 2.3.1 1.84.53 1.65 4.44 1.13 3.96.02 2.74.84 1.74.28.62 2.73 2.85.36.77 1.08-.38 4.17 1.23 1-.43 1.7 1.1.7-.2 1.24-2.4-.08.09 1.43 2.03 1.37.1 1.25 1.58 1.58.45 2.24-2.28 1.23 1.4 1.34 5.17-1.51 3.21 5.34Z"></path>
<text id="VA_label" fill="#000000" font-size="15.4" font-family="Arial" font-weight="normal" font-style="normal" letter-spacing="0" transform="rotate(0)" text-anchor="center"><tspan x="750.88" y="314.56">VA</tspan></text>
<path id="OH" fill="#d1dbdd" stroke="#000" stroke-width="0.82" d="m704.7 229.19-5.44 3.59-3.45 2.01-3.03 3.3-3.6 3.46-2.87.72-2.6.43-4.9 2.3-1.88.14-3.03-2.73-4.62.58-2.29-1.3-2.12-1.2-4.36.64-9.06 1.44-9.99 1.95 1.15 12.99 1.59 12.22 2.32 20.85.51 4.28 3.66-.1 2.15-.72 3.01 1.33 1.85 3.87h4.57l1.68 1.88 1.57-.06 2.26-1.2 2.24.35 4.83.43 1.54-1.9 2.08-1.15 1.85-.62.58 2.47 1.58.85 3.1 2.1 1.95-.08 1.18-.44.17-2.46 1.41-1.28.1-4.26.91-3.65 1.16-.55 1.16 1.03.48 1.5 1.54-.93.38-1.29-1-1.7.07-2.05.67-.95 1.93-2.95.92-1.38 1.88.41 2.04-1.43 2.73-3.01 2.46-3.63.29-4.49.43-4.45-.15-4.73-.87-2.56.31-1.06 1.61-1.54-2.03-8.06-2.6-17.21Z"></path>
<text id="OH_label" fill="#000000" font-size="15.4" font-family="Arial" font-weight="normal" font-style="normal" letter-spacing="0" transform="rotate(0)" text-anchor="center"><tspan x="673.46" y="274.01">OH</tspan></text>
<path id="IL" fill="#d1dbdd" stroke="#000" stroke-width="0.82" d="m601.54 324.31.03-2.88.51-4.12 2.05-2.6 1.68-3.6 2-3.56-.34-4.67-1.53-2.85-.29-2.87.72-4.89-.43-6.16-1.16-14.25-1.15-13.65-.85-10.4-.45-.66-.72-2.3-1.16-3.3-1.44-1.58-1.3-2.31-.2-4.88-40.81 2.31.2 2.1 2.04.62.82 1 .41 1.65 3.46 3.04.62 2.02-.62 3.06-1.45 2.64-.65 2.59-1.99 1.46-1.4.5-5.1 1.78-.62 1.61-.62 1.83.62 1.23 1.64 1.42-.2 3.65-1.65 1.41-.61 1.44v2.42l-1.62.41-1.43 1.03-.2 1.21.2 1.85-1.52 1.16-.93 2.49.41 3.25 2.06 6.5 6.5 6.7 4.9 3.26-.21 3.86.82 1.24 5.7.4 2.44 1.22-.62 3.24-2.02 5.3-.62 2.83 2.03 3.45 5.72 4.68 4.08.62 1.83 4.45 1.85 2.85-.82 2.64 1.41 3.65 1.65 1.83 1.23-.77.82-1.85 1.97-1.54 1.9-.55 2.32 1.06 3.24 1.23 1.05-.28.19-2-1.15-2.14.28-2.11 1.64-1.2 2.69-.72 1.13-.41-.55-1.24-.7-2.1 1.27-.86 1.03-2.85Z"></path>
<text id="IL_label" fill="#000000" font-size="15.4" font-family="Arial" font-weight="normal" font-style="normal" letter-spacing="0" transform="rotate(0)" text-anchor="center"><tspan x="583.08" y="288.78">IL</tspan></text>
<path id="CT" fill="#d1dbdd" stroke="#000" stroke-width="0.82" d="m828.32 216.32-3.3-13.23-4.2.82-18.9 4.21.89 2.88 1.29 6.47.16 7.96-1.08 1.93 1.7 1.71 3.8-3.47 3.18-2.87 1.73-1.87.72.57 2.44-1.3 4.62-.99 6.93-2.83Z"></path>
<text id="CT_label" fill="#000000" font-size="10.2" font-family="Arial" font-weight="normal" font-style="normal" letter-spacing="0" transform="rotate(0)" text-anchor="center"><tspan x="812.95" y="216.33">CT</tspan></text>
<path id="WI" fill="#d1dbdd" stroke="#000" stroke-width="0.82" d="m597.56 232.78-.07-2.81-1.06-4.03-.57-5.46-1-2.16.85-2.72.72-2.59 1.3-2.3-.57-3-.57-3.17.44-1.6 1.72-2.15.15-2.44-.72-1.15.56-2.3-.4-3.7 2.46-5.02 2.56-6.06.17-2-.29-.87-.72.43-3.74 5.61-2.46 3.6-1.72 1.59-.71 2.01-1.75.72-1 1.72-1.29-.28-.14-1.57 1.15-2.16 1.87-4.17 1.59-1.44.88-2.08-2.29-1.7-1.75-9.2-3.18-1.2-1.72-2.05-10.8-2.44-2.58-.9-7.3-1.92-7.06-1.03-3.36-4.56-.68.5-1.07-.15-.57-1-1.2.25-1 .14-1.58.86-.86-.58.57-1.72 1.73-2.74 1-1-1.72-1.3-1.87.72-2.6 1.73-6.61 2.87-2.59.57-2.6-.43-.86-.77-1.89 2.52-.2 2.45v7.51l-1.03 1.44-4.68 3.44-2.03 5.3.41.2 2.23 1.83.62 2.84-1.65 2.84V188l.41 5.9 2.65 2.65h3.06l1.63 2.84 3.08.41 3.45 5.08 6.31 3.66 1.85 2.45.82 6.6.6 2.95 2.05 1.42.19 1.23-1.83 3.04.2 2.83 2.24 3.45 2.24 1.03 2.65.41 1.2 1.21 40.35-2.36Z"></path>
<text id="WI_label" fill="#000000" font-size="15.4" font-family="Arial" font-weight="normal" font-style="normal" letter-spacing="0" transform="rotate(0)" text-anchor="center"><tspan x="567.82" y="199.94">WI</tspan></text>
<path id="MA" fill="#d1dbdd" stroke="#000" stroke-width="0.82" d="m851.08 211.34 1.93-.62.41-1.52.93.1.9 2.04-1.13.4-3.45.11Zm-8.36.72 2.06-2.35h1.41l1.65 1.32-2.16.92-1.92.9-1.03-.81Zm-31.01-19.56 15.73-4.13 2.03-.57 1.7-2.49 3.33-1.47 2.56 3.92-2.15 4.6-.29 1.3 1.73 2.3 1.02-.73h1.57l2.02 2.3 3.47 5.31 3.16.44 2.02-.87 1.59-1.57-.72-2.44-1.87-1.44-1.3.72-.87-1.15.43-.43 1.88-.15 1.57.72 1.73 2.16.87 2.59.29 2.15-3.74 1.29-3.47 1.74-3.45 4-1.75 1.31v-.86l2.18-1.3.43-1.58-.72-2.73-2.6 1.3-.71 1.29.43 2-1.85.9-2.47-4.03-3-3.88-1.85-1.61-5.83 1.67-4.52.92-18.43 4.1-.6-4.25.58-9.4 3.82-.8 6.06-1.15Z"></path>
<text id="MA_label" fill="#000000" font-size="9.97" font-family="Arial" font-weight="normal" font-style="normal" letter-spacing="0" transform="rotate(0)" text-anchor="center"><tspan x="822.2" y="199.99">MA</tspan></text>
<path id="MN" fill="#d1dbdd" stroke="#000" stroke-width="0.82" d="m472.96 171.84-.4-7.52-1.63-6.5-1.64-11.98-.41-8.73-1.63-3.06-1.43-4.47v-9.14l.61-3.46-1.62-4.85 26.85.05.28-7.34.58-.14 2 .43 1.72.72.72 4.89 1.3 5.46 1.45 1.44h4.3l.32 1.3 5.6.28v1.87h4.32l.3-1.15 1-1 2.01-.58 1.15.86h2.6l3.46 2.3 4.75 2.16 2.15.4.45-.83 1.29-.44.43 2.57 2.31 1.16.43-.43 1.15.16v1.86l2.3.87h2.8l1.43-.72 2.88-2.88 2.31-.4.72 1.56.43 1.15h.86l.86-.72 7.92-.28 1.58 2.73h.57l.64-.97 3.95-.34-.54 2.04-3.52 1.64-8.24 3.6-4.25 1.78-2.73 2.3-2.15 3.15-2.03 3.46-1.58.71-4.03 4.46-1.13.14-3.87 2.47-2.2 2.83-.2 2.85.09 7.15-1.24 1.5-4.52 3.32-1.99 5.32 2.57 2 .6 2.87-1.65 2.88.15 3.32.32 5.98 2.7 2.67h2.98l1.69 2.77 3 .46 3.45 5.04 6.31 3.66 1.91 2.57.6 5.7-72.35 1.04-.3-31.74-.42-2.62-3.65-3.05-1.03-1.63v-1.44l1.83-1.41 1.23-1.23.2-2.84Z"></path>
<text id="MN_label" fill="#000000" font-size="15.4" font-family="Arial" font-weight="normal" font-style="normal" letter-spacing="0" transform="rotate(0)" text-anchor="center"><tspan x="499.41" y="179.01">MN</tspan></text>
<path id="NM" fill="#d1dbdd" stroke="#000" stroke-width="0.82" d="m306.28 434.24-.7-4.2 7.7.45 26.89 2.61 24.3 1.5 1.97-16.63 3.44-49.67 1.54-17.23 1.4.1.72-9.92-92.66-9.44-15.58 107.05 13.76 1.76 1.16-8.9 26.04 2.51Z"></path>
<text id="NM_label" fill="#000000" font-size="15.4" font-family="Arial" font-weight="normal" font-style="normal" letter-spacing="0" transform="rotate(0)" text-anchor="center"><tspan x="316.46" y="392.56">NM</tspan></text>
<path id="CO" fill="#d1dbdd" stroke="#000" stroke-width="0.82" d="m388.14 342.64 4.37-76.74-101.03-11.24-10.88 78.18 107.54 9.81Z"></path>
<text id="CO_label" fill="#000000" font-size="15.4" font-family="Arial" font-weight="normal" font-style="normal" letter-spacing="0" transform="rotate(0)" text-anchor="center"><tspan x="336.78" y="305.42">CO</tspan></text>
<path id="AZ" fill="#d1dbdd" stroke="#000" stroke-width="0.82" d="m178.65 397.45-2.34 1.92-.29 1.3.44.86L193.3 411l10.81 6.75 13.1 7.62 15 8.92 10.93 2.15 22.24 2.4 15.37-105.9-74.6-10.6-2.76 14.6-1.44.01-1.52 2.34-2.25-.1-1.13-2.43-2.44-.31-.82-1.03h-.8l-.82.52-1.73.92-.1 6.2-.2 1.5-.52 11.2-1.33 1.92-.5 2.94 2.44 4.38 1.13 5.18.7.93.92.51-.1 2.02-1.44 1.24-3.05 1.52-1.73 1.72-1.33 3.25-.52 4.36-2.53 2.44-1.83.61.12.74-.4 1.52.4.72 3.26.51-.51 2.43-1.34 1.93-3.35.82Z"></path>
<text id="AZ_label" fill="#000000" font-size="15.4" font-family="Arial" font-weight="normal" font-style="normal" letter-spacing="0" transform="rotate(0)" text-anchor="center"><tspan x="226.7" y="389.06">AZ</tspan></text>
<path id="NV" fill="#d1dbdd" stroke="#000" stroke-width="0.82" d="m224.53 222.28-21.06 114.5-1.64.34-1.4 2.13h-2.12l-1.3-2.43-2.34-.33-.68-.98-.93-.05-2.46 1.46-.28 6.04-.33 5.13-.3 7.63-1.3 1.87-2.15-.95L124.68 264l16.92-60.08 82.95 18.36Z"></path>
<text id="NV_label" fill="#000000" font-size="15.4" font-family="Arial" font-weight="normal" font-style="normal" letter-spacing="0" transform="rotate(0)" text-anchor="center"><tspan x="170.81" y="273.58">NV</tspan></text>
<path id="OR" fill="#d1dbdd" stroke="#000" stroke-width="0.82" d="m182.06 213.37 7.88-30.94.92-3.77 2.1-5-.54-1.02-2.25-.05-1.13-1.5.4-1.3.45-2.87 3.96-4.89 1.62-.97 1.03-1.03 1.32-3.16 3.59-5.05 3.18-3.43.2-3.09-2.9-2.17-1.59-4.13-11.3-3.22-13.43-3.15-13.76.1-.39-1.23-4.89 1.85-3.97-.51-2.16-1.42-1.13.62-4.16-.2-1.54-1.24-4.67-1.83-.72.1-3.86-1.31-1.75 1.62-5.49-.3-5.3-3.66.62-.72.2-6.9-2.05-3.46-3.66-.52-.61-2.24-2.1-.4-5.16 1.82-2 5.75-2.88 8.9-2.9 5.76-4.45 12.5L91 157.79l-7.2 11.2-1.73 2.6-.72 7.61.34 10.75 100.33 23.41Z"></path>
<text id="OR_label" fill="#000000" font-size="15.4" font-family="Arial" font-weight="normal" font-style="normal" letter-spacing="0" transform="rotate(0)" text-anchor="center"><tspan x="136.32" y="174.01">OR</tspan></text>
<path id="WA" fill="#d1dbdd" stroke="#000" stroke-width="0.82" d="m140.5 64.1 3.87 1.29 8.65 2.44 7.63 1.73 17.87 5.03 20.44 5.03 13.57 2.85-12.15 56.52-11.09-3.13-13.81-3.19-13.59.03-.4-1.19-4.99 1.93-4.1-.65-1.9-1.41-1.18.58-4.2-.12-1.53-1.2-4.69-1.88-.65.13-3.9-1.35-1.7 1.61-5.58-.27-5.28-3.66.69-.82.1-6.83-2.03-3.42-3.67-.55-.61-2.24-2.02-.4-3.18 1.08-2.01-2.85.28-2.6 2.45-.28 1.44-3.6-2.3-1 .14-3.3 3.9-.58-2.46-2.44-1.3-6.32.58-2.6v-7.01l-1.54-2.88 2-8.32 1.88.43 2.16 2.6 2.46 2.28 2.88 1.73 4.02 1.87 2.73.57 2.6 1.3 3.02.85 2.02-.15v-2.13l1.15-1.03 1.85-1.13.31 1 .28 1.58-2.01.44-.28 1.87 1.58 1.3 1 2.15.58 1.75 1.32-.16.14-1.15-.86-1.15-.43-2.87.72-1.57-.58-1.3v-2l1.58-3.15-1-2.3-2.16-4.32.28-.72 1-.71Zm-8.42 5.3 1.78-.13.43 1.23 1.38-1.44h2.08l.72 1.36-1.37 1.5.58.72-.65 1.8-1.23.37s-.78.07-.78-.21c0-.3 1.28-2.31 1.28-2.31l-1.5-.5-.32 1.3-.63.58-1.37-2.02-.43-2.26Z"></path>
<text id="WA_label" fill="#000000" font-size="15.4" font-family="Arial" font-weight="normal" font-style="normal" letter-spacing="0" transform="rotate(0)" text-anchor="center"><tspan x="159.53" y="108.73">WA</tspan></text>
<path id="CA" fill="#d1dbdd" stroke="#000" stroke-width="0.82" d="m178.47 397.07 3.49-.43 1.33-1.79.49-2.62-3.17-.51-.46-.62.41-1.8-.13-.5 1.71-.56 2.7-2.53.52-4.44 1.23-3.02 1.75-1.93 3.12-1.41 1.48-1.44.07-1.85-.9-.51-.9-.97-1.02-5.2-2.4-4.29.5-3.12-2.15-.92L124.6 264l16.84-60.08-59.77-13.96-1.34 4.2-.15 6.62-4.6 10.5-2.73 2.3-.29 1-1.58.72-1.3 3.74-.72 2.87 2.46 3.73 1.44 3.74 1 3.15-.3 5.75-1.57 2.74-.58 5.16-.87 3.3 1.6 3.46 2.44 4.02 2.03 4.32 1.16 3.6-.3 2.87-.28.4v1.89l5.03 5.6-.43 2.15-.57 2.01-.59 1.75.15 7.31 1.88 3.3 1.72 2.3 2.44.44.88 2.44-1 3.17-1.88 1.43h-1l-.72 3.44.43 2.6 2.87 3.88 1.44 4.76 1.3 4.17 1.17 2.72 3.03 5.17 1.29 2.3.43 2.58 1.44.87v2.15l-.72 1.73-1.58 6.32-.43 1.73 2.15 2.43 3.75.43 4.03 1.58 3.46 1.86h2.59l2.6 2.74 2.28 4.3 1.01 2.03 3.47 1.87 4.31.72 1.3 1.85.58 2.87-1.28.59.29.85 2.87.72 2.47.14 2.8-1.5 3.46 3.74.72 2.02 2.3 3.73.29 2.88v8.32l.43 1.59 8.93 1.3 17.57 2.44 12.34 1.2Zm-78.53-38.85 1.15 1.37-.15 1.15-2.87-.09-.51-1.07-.57-1.3 2.96-.06Zm1.72 0 1.1-.58 3.18 1.87 2.72 1.08-.78.58-4.04-.2-1.44-1.45-.72-1.29Zm18.45 17.6 1.59 2.09.72.87 1.37.51.52-1.3-.88-1.58-2.39-1.8-.92.13v1.08Zm-1.3 7.7 1.58 2.8 1.1 1.72-1.31.2-1.15-1.06s-.64-1.3-.64-1.64v-1.95l.43-.08Z"></path>
<text id="CA_label" fill="#000000" font-size="15.4" font-family="Arial" font-weight="normal" font-style="normal" letter-spacing="0" transform="rotate(0)" text-anchor="center"><tspan x="119.57" y="314.66">CA</tspan></text>
<path id="MD" fill="#d1dbdd" stroke="#000" stroke-width="0.82" d="m797.77 281.71-5.36 1.06-4.58.1-1.64-6.16-1.71-8.14-2.28-5.5-1.15-3.9-6.68 1.44-13.27 2.5-33.37 6.72 1.02 4.45.86 5.03.28-.28 1.88-2.15 2.02-2.32 2.15-.56 1.3-1.3 1.6-2.28 1.15.56 2.6-.3 2.3-1.86 1.78-1.29 1.65-.43 1.47 1 2.6 1.3 1.74 1.57 1.07 1.36 3.67 1.5v2.57l4.9 1.16 1.02.49 1.26-1.8 2.57 1.75-1.13 2.2-.69 3.55-1.58 2.3v1.85l.58 1.59 4.51 1.2 3.83-.05 2.76.86 1.87.3.86-1.87-1.3-1.87v-1.58l-2.15-1.85-1.88-4.9 1.15-4.74-.15-1.85-1.15-1.16s1.3-1.44 1.3-2c0-.58.45-1.87.45-1.87l1.73-1.15 1.72-1.44.43.86-1.3 1.44-1.14 3.3.29 1 1.58.3.43 4.89-1.87.86.29 3.15.43-.14 1-1.73 1.44 1.59-1.44 1.12-.28 3.03 2.3 3.02 3.46.41 1.44-.71 2.87 3.72 1.23.48 5.92-2.5 1.78-3.57-.38-4.38Zm-14.23 8.02 1 2.22.15 1.58 1.03 1.65s.78-.78.78-1.07c0-.29-.65-2.73-.65-2.73l-.66-2.08-1.64.43Z"></path>
<path id="MD_line" fill="#d1dbdd" stroke="#000" stroke-width="1.02694" d="m767.28 267.76 42.83 29.74-42.83-29.75Z"></path>
<text id="MD_label" fill="#000000" font-size="12.89" font-family="Arial" font-weight="normal" font-style="normal" letter-spacing="0" transform="rotate(0)" text-anchor="center"><tspan x="824.43" y="304.22">MD</tspan></text>
<path id="DE" fill="#d1dbdd" stroke="#000" stroke-width="0.82" d="m785.15 260.25.33-1.91.31-1.51-1.44.35-1.44.41-1.95 1.57 1.52 4.49 2.02 5.03 1.88 8.63 1.43 5.6 4.47-.15 5.47-1.05-2.02-6.57-.86.43-3.19-2.15-1.57-4.16-1.71-3.17-2.8-2.56-.78-1.85.33-1.44Z"></path>
<path id="DE_line" fill="#d1dbdd" stroke="#000" stroke-width="1.02694" d="m816.78 272.85-23.98 4.17 23.98-4.18Z"></path>
<text id="DE_label" fill="#000000" font-size="13.11" font-family="Arial" font-weight="normal" font-style="normal" letter-spacing="0" transform="rotate(0)" text-anchor="center"><tspan x="826.8" y="274.8">DE</tspan></text>
<path id="NJ" fill="#d1dbdd" stroke="#000" stroke-width="0.82" d="m788.76 224.85-2.06 2.44v2.73l-1.74 2.74-.15 1.44 1.16 1.13-.14 2.15-2.02 1.03.72 2.43.14 1.01 2.46.29.86 2.3 3.18 2.15 2.16 1.44v.72l-2.67 2.4-1.44 2-1.3 2.45-2.02 1.16-.4 1.44-.21 1.07-.56 2.3.98 2 2.9 2.59 4.3 2.01 3.6.58.15 1.29-.71.86.28 2.45h.72l1.87-2.16.72-4.31 2.47-3.6 2.72-5.75 1.02-4.88-.58-1-.16-8.34-1.43-3.01-1.01.72-2.44.29-.44-.44 1.01-.86 1.87-1.72.06-.98-.35-3.06.52-2.44-.1-1.75-2.51-1.56-4.54-1.05-3.7-1.23-3.18-1.46Z"></path>
<path id="NJ_line" fill="#d1dbdd" stroke="#000" stroke-width="1.02694" d="m799.37 247.63 24.68.2-24.67-.2Z"></path>
<text id="NJ_label" fill="#000000" font-size="12.33" font-family="Arial" font-weight="normal" font-style="normal" letter-spacing="0" transform="rotate(0)" text-anchor="center"><tspan x="833.64" y="251.13">NJ</tspan></text>
<path id="MI" fill="#d1dbdd" stroke="#000" stroke-width="0.82" d="m578.12 123.77-2.01.5-4.8 3.46-1.92.72-1.64 1.83 1.44 1 1.85-.81 2.93-1.72 4.58-4.58-.4-.41Zm9.96 12.65-4.2.41-3.88 2.18-2.02 1.98-1.16 1.6-1.57.7-1.73 2.59-.15 1.16-3.9 1.85-2.16 1.74-5.32.87-.59.56v.86l-3.18 2.02-2.43.72-.64.51 3.34 4.58 7.01 1 7.33 1.93 2.54.92 10.78 2.47 1.85 2 3.16 1.23 1.73 9.14 1.23.9 1.03.93 2.83-6.22.89-3.59 1.72-3.88.72-.12 1 1.43h.57l4.03-2.17 1.3 1.43.41.17 1.15-1.03 1.03-2.72 2.16-.72 6.19-.6 1.72-2.28 4.62-.16 5.18 1.16h1.58l2.88-1.3 2.03.15 1.87-.56 3.32.4.72.32 1.16-.31-1.16-.85-1.16-.57-2.88-2.73v-6.18l-1.3-.44-1.01 1.02-5.47 1.44-1.72.41-2.59-.7-.44-.3v-5.02l-1.3-.14-2.3 1.15-4.03 1.72-5.91.27-3.01 1.03-3.6 3.16-1.46.86h-1l-1.13.72-1.46-.4-1.44-1.18-1.3.86-3.48.15-2.43-2.47-1.3-2.73-1.28-.97-2.88-.86h-2.02l-1.15-1.16-3.19 2.6-.85 1-.72-.44.27-2.28 2.16-2.88.45-2.16 2.02-.72 1.28-2.74 3.32-.85.3-.86-1.02-.99Zm59.26 20.61-1.95.2-1.44.17-.3 1 .88.42.57 2.26 2.87.13 1.16-1.07s-.08-1.31-.36-1.45a12.94 12.94 0 0 1-1.44-1.65Zm-14.48 8.27-2.6 1.56-2.59 2.02.31 3.15.85.28 1.87.45.41.72-2.28.72-2.3.28-1.31 1.58-.28 1.85.28 1.44.3 4.9-3.18 1.87-.57-.16v-3.75l1.16-2.15.56-2.16-.72-.72-1.71.72-.86 3.75-2.47.98-1.57 1.75-.14.85.56.74-.55 2.3-2.02.43v1l.72 2.16-1.02 5.47-1.42 3.6.56 4.15.44 1-.73 2.17-.27.71-.31 2.45 3.18 5.34 2.6 5.75 1.3 4.31-.72 4.15-.88 5.32-2.13 4.6-.31 2.44-2.9 2.73 3.9-.13 19.1-2 6.5-.9.1 1.49 6.1-1.06 9.16-1.37 3.45-.39.12-.55.15-1.27 1.87-3.31 1.77-1.54-.2-4.52 1.44-1.4.97-.3.2-3.17 1.34-2.7.95.53.14.6.72.14 1.75-.86-.3-8.5-2.87-7.32-2.02-8.05-2.16-2.86-2.32-1.6-1.44 1.03-3.45 1.58-1.74 4.45-2.44 3.31-1 .57-1.32-.58s-2.3-1.3-2.15-1.88c.13-.56.43-4.44.43-4.44l3.03-1.16.7-3 .6-2.32 2.13-1.43-.27-8.9-1.46-2.02-1.15-.72-.72-1.87.72-.72 1.44.31.16-1.46-2.15-2.02-1.17-2.28h-2.31l-4-1.3-4.9-3h-2.47l-.57.57-.86-.4-2.75-2.03Z"></path>
<text id="MI_label" fill="#000000" font-size="15.4" font-family="Arial" font-weight="normal" font-style="normal" letter-spacing="0" transform="rotate(0)" text-anchor="center"><tspan x="638.34" y="222.11">MI</tspan></text>
<path id="DC_line" fill="#d1dbdd" stroke="#000" stroke-width="1.02694" d="m768.48 282.47 42.3 32.06Z"></path>
<text id="DC_label" fill="#000000" font-size="12.36" font-family="Arial" font-weight="normal" font-style="normal" letter-spacing="0" transform="rotate(0)" text-anchor="center"><tspan x="822.95" y="324.13">DC</tspan></text>
<path id="DC" fill="#d1dbdd" stroke="#000" stroke-width="0.82" d="M772.86 280.3a5.35 5.35 0 0 1-10.7 0 5.34 5.34 0 0 1 10.68 0Z"></path><defs></defs><g id="legend-g-svg"><rect id="legend-bg-rect-svg" x="763.3333333333333" y="470.0739176346357" rx="7" ry="7" width="166.66666666666669" height="0" stroke="#00000000" opacity="0.00"></rect><g id="legend-g-svg" fill="#000" transform="scale(1)" x="1483.6333333333332" y="928.1999999999999" style="font-family: &quot;Century Gothic&quot;; font-weight: 400; font-style: normal;"><text id="legend-title-svg" font-size="13" font-weight="bolder"><tspan id="legend-title-tspan-svg0" x="783.3333333333333" y="490.0739176346357" dy="0"> </tspan></text></g></g></svg>